<svg width="446" height="445" viewBox="0 0 446 445" fill="none" xmlns="http://www.w3.org/2000/svg">
<g clip-path="url(#clip0_5_1816)">
<path d="M1.71661e-05 85.0187H21.3244V446H1.71661e-05V85.0187Z" fill="#4CF190"/>
<path d="M21.3244 63.6944H42.5094V85.0188H21.3244V63.6944Z" fill="#4CF190"/>
<path d="M42.5094 42.5094H63.8337V63.6944H42.5094V42.5094Z" fill="#4CF190"/>
<path d="M63.8338 21.185H85.0188V42.5094H63.8338V21.185Z" fill="#4CF190"/>
<path d="M403.63 0V85.0187H382.306V106.204H361.121V297.287H382.306V318.611H403.63V339.796H424.815V360.981H148.713V446H127.528V339.796H106.204V318.611H85.0188V297.287H63.8338V106.204H85.0188V85.0187H106.204V21.185H85.0188V0H403.63ZM297.426 21.185H127.528V63.6944H297.426V21.185ZM339.936 21.185H318.611V63.6944H339.936V21.185ZM382.306 63.6944V21.185H361.121V63.6944H382.306ZM318.611 318.611H339.936V339.796H361.121V318.611H339.936V297.287H318.611V318.611ZM254.917 318.611H276.102V339.796H297.426V318.611H276.102V297.287H254.917V318.611ZM148.713 339.796H212.408V318.611H148.713V339.796ZM127.528 276.102H297.426V148.713H127.528V276.102ZM106.204 127.389H339.936V106.204H106.204V127.389Z" fill="#4CF190"/>
<path d="M148.713 212.407H170.038V233.592H148.713V212.407Z" fill="#4CF190"/>
<path d="M170.038 169.898H191.222V191.083H170.038V169.898Z" fill="#4CF190"/>
<path d="M170.038 446V403.491H233.732V446H212.407V424.815H191.222V446H170.038Z" fill="#4CF190"/>
<path d="M170.038 233.593H254.917V254.917H170.038V233.593Z" fill="#4CF190"/>
<path d="M233.732 169.898H254.917V191.083H233.732V169.898Z" fill="#4CF190"/>
<path d="M254.917 212.407H276.102V233.592H254.917V212.407Z" fill="#4CF190"/>
<path d="M424.815 360.981H446V446H424.815V360.981Z" fill="#4CF190"/>
</g>
<defs>
<clipPath id="clip0_5_1816">
<rect width="446" height="446" fill="white" transform="matrix(-1 0 0 1 446 0)"/>
</clipPath>
</defs>
</svg>
