<svg width="80" height="80" viewBox="0 0 80 80" fill="none" xmlns="http://www.w3.org/2000/svg">
<path d="M68.6642 66.3146L67.7964 62.7603L64.2421 63.6281L65.1099 67.1825L68.6642 66.3146Z" fill="#4CF190"/>
<path d="M79.2807 63.7225L78.4128 60.1682L74.8585 61.036L75.7263 64.5903L79.2807 63.7225Z" fill="#4CF190"/>
<path d="M64.242 63.6281L63.3799 60.097L59.8488 60.9591L60.7109 64.4902L64.242 63.6281Z" fill="#4CF190"/>
<path d="M74.8586 61.036L73.9965 57.5049L70.4654 58.367L71.3275 61.8981L74.8586 61.036Z" fill="#4CF190"/>
<path d="M59.8487 60.9591L58.9866 57.428L55.4322 58.2959L56.2944 61.827L59.8487 60.9591Z" fill="#4CF190"/>
<path d="M70.4653 58.367L69.6031 54.8359L66.072 55.6981L66.9342 59.2292L70.4653 58.367Z" fill="#4CF190"/>
<path d="M51.9011 59.158L51.0333 55.6037L47.5022 56.4659L48.3701 60.0202L51.9011 59.158Z" fill="#4CF190"/>
<path d="M66.072 55.6981L65.2042 52.1437L61.6499 53.0116L62.5177 56.5659L66.072 55.6981Z" fill="#4CF190"/>
<path d="M76.6886 53.106L75.8208 49.5516L72.2665 50.4195L73.1343 53.9738L76.6886 53.106Z" fill="#4CF190"/>
<path d="M47.5023 56.4659L46.6401 52.9348L43.0858 53.8026L43.948 57.3337L47.5023 56.4659Z" fill="#4CF190"/>
<path d="M61.6499 53.0116L60.7877 49.4805L57.2566 50.3426L58.1188 53.8737L61.6499 53.0116Z" fill="#4CF190"/>
<path d="M72.2664 50.4195L71.4043 46.8884L67.8732 47.7505L68.7353 51.2816L72.2664 50.4195Z" fill="#4CF190"/>
<path d="M67.8732 47.7505L67.0054 44.1962L63.4743 45.0583L64.3421 48.6126L67.8732 47.7505Z" fill="#4CF190"/>
<path d="M38.6869 51.1104L37.8247 47.5793L34.2704 48.4471L35.1325 51.9782L38.6869 51.1104Z" fill="#4CF190"/>
<path d="M52.8344 47.6561L51.9723 44.125L48.4412 44.9872L49.3033 48.5183L52.8344 47.6561Z" fill="#4CF190"/>
<path d="M62.6122 41.5272L61.75 37.9961L58.1957 38.8639L59.0578 42.395L62.6122 41.5272Z" fill="#4CF190"/>
<path d="M44.048 42.3182L43.1802 38.7639L39.6258 39.6317L40.4937 43.1861L44.048 42.3182Z" fill="#4CF190"/>
<path d="M53.7967 36.1718L52.9346 32.6407L49.3802 33.5085L50.2424 37.0396L53.7967 36.1718Z" fill="#4CF190"/>
<path d="M49.3802 33.5085L48.5181 29.9774L44.987 30.8395L45.8491 34.3706L49.3802 33.5085Z" fill="#4CF190"/>
<path d="M6.05196 40.3459L9.58306 39.4838L10.4452 43.0149L13.9995 42.147L14.8617 45.6781L18.3928 44.816L19.2606 48.3703L33.4083 44.916L32.5404 41.3617L36.0948 40.4939L35.2326 36.9628L38.7637 36.1006L37.9016 32.5695L41.4559 31.7017L37.9959 17.5308L34.4416 18.3987L33.5795 14.8676L30.0484 15.7297L29.1805 12.1754L25.6262 13.0432L24.764 9.51211L10.6164 12.9664L11.4786 16.4975L7.94747 17.3596L8.81529 20.914L5.26096 21.7818L6.12311 25.3129L2.59201 26.1751L6.05196 40.3459ZM32.6405 26.3462L34.3705 33.4317L30.8161 34.2995L31.6783 37.8306L28.1472 38.6928L29.0093 42.2239L21.9239 43.9538L21.0617 40.4227L28.1472 38.6928L27.285 35.1617L30.8161 34.2995L29.0861 27.2141L32.6405 26.3462Z" fill="#EFD671"/>
</svg>
