<svg width="78" height="78" viewBox="0 0 78 78" fill="none" xmlns="http://www.w3.org/2000/svg">
<path d="M4 74H8.12988V78H0V70H4V74Z" fill="#4CF190"/>
<path d="M65.8047 74V78H12.1953V74H65.8047Z" fill="#4CF190"/>
<path d="M78 70V78H69.8701V74H74V70H78Z" fill="#4CF190"/>
<path d="M12.1953 74H8.12988V70H12.1953V74Z" fill="#4CF190"/>
<path d="M69.8701 70V74H65.8047V70H69.8701Z" fill="#4CF190"/>
<path d="M8.12988 70H4.06543V66H8.12988V70Z" fill="#4CF190"/>
<path d="M73.9346 66V70H69.8701V66H73.9346Z" fill="#4CF190"/>
<path d="M4 66H0V12H4V66Z" fill="#4CF190"/>
<path d="M78 12V66H74V12H78Z" fill="#4CF190"/>
<path d="M8.12988 12H4.06543V8H8.12988V12Z" fill="#4CF190"/>
<path d="M73.9346 8V12H69.8701V8H73.9346Z" fill="#4CF190"/>
<path d="M8.12988 4H4V8H0V0H8.12988V4Z" fill="#4CF190"/>
<path d="M12.1953 8H8.12988V4H12.1953V8Z" fill="#4CF190"/>
<path d="M78 0V8H74V4H69.8701V8H65.8047V4H69.8701V0H78Z" fill="#4CF190"/>
<path d="M65.8047 0V4H12.1953V0H65.8047Z" fill="#4CF190"/>
</svg>
