<svg width="352" height="430" viewBox="0 0 352 430" fill="none" xmlns="http://www.w3.org/2000/svg">
<path d="M327.114 343.973H314.818V356.309H351.705V430H118.295V356.309H155.141V343.973H142.886V331.718H327.114V343.973ZM130.551 417.745H339.449V368.563H130.551V417.745ZM314.859 405.409H290.269V380.818H314.859V405.409ZM216.577 393.154H155.141V380.818H216.577V393.154ZM167.477 356.309H302.604V343.973H167.477V356.309ZM142.886 331.718H130.551V184.255H142.886V331.718ZM339.449 331.718H327.114V184.255H339.449V331.718ZM314.818 319.463H155.101V196.591H314.818V319.463ZM167.477 307.128H302.604V208.846H167.477V307.128ZM253.423 282.537H216.577V270.282H253.423V282.537ZM216.577 270.282H204.322V258.027H216.577V270.282ZM265.759 270.282H253.423V258.027H265.759V270.282ZM216.577 245.691H204.322V233.437H216.577V245.691ZM265.759 245.691H253.423V233.437H265.759V245.691ZM327.114 184.255H142.886V172H327.114V184.255ZM50.4697 80.0596H60.3496V89.9404H80.1748V99.8848H139.585V109.765H109.88V119.645H100V129.59H90.0547V139.47H50.4697V149.35H40.5254V159.295H30.6445V169.175H20.7646V129.59H10.8203V119.645H0.94043V80.0596H10.8203V70.1152H20.7646V60.2354H40.5254V30.5303H50.4697V80.0596ZM169.29 139.47H159.41V129.59H149.53V119.645H159.41V99.8848H169.29V139.47ZM149.53 119.645H139.585V109.765H149.53V119.645ZM179.235 99.8848H169.29V89.9404H179.235V99.8848ZM189.115 89.9404H179.235V80.0596H189.115V89.9404ZM199.06 80.0596H189.115V30.5303H199.06V80.0596ZM90.0547 70.1152H70.2949V50.3555H90.0547V70.1152ZM129.705 70.1152H109.88V50.3555H129.705V70.1152ZM169.29 70.1152H149.53V50.3555H169.29V70.1152ZM60.3496 30.5303H50.4697V20.585H60.3496V30.5303ZM189.115 30.5303H179.235V20.585H189.115V30.5303ZM80.1748 20.585H60.3496V10.7051H80.1748V20.585ZM179.235 20.585H159.41V10.7051H179.235V20.585ZM159.41 10.7051H80.1748V0.825195H159.41V10.7051Z" fill="#4CF190"/>
</svg>
