<svg width="47" height="47" viewBox="0 0 47 47" fill="none" xmlns="http://www.w3.org/2000/svg">
<path d="M36.917 17.904V26.8634H41.3967V44.7674H43.6439V2.23242H41.3967V17.904H36.917ZM41.3967 22.3837H39.1642V20.1365H41.3967V22.3837Z" fill="#4CF190"/>
<path d="M41.3967 44.7676H5.58859V47.0001H41.3967V44.7676Z" fill="#4CF190"/>
<path d="M39.1642 40.2876H7.83578V42.5201H39.1642V40.2876Z" fill="#4CF190"/>
<path d="M30.2049 26.8633H27.9724V29.0958H30.2049V26.8633Z" fill="#4CF190"/>
<path d="M27.9723 31.3286H19.013V33.5758H27.9723V31.3286Z" fill="#4CF190"/>
<path d="M19.013 26.8633H16.7805V29.0958H19.013V26.8633Z" fill="#4CF190"/>
<path d="M14.5406 11.1919H12.3008V13.4244H39.1642V2.2325H41.3967V0H12.3008V2.2325H14.5406V11.1919ZM34.6772 4.47969H36.9097V11.1919H34.6772V4.47969ZM30.1975 4.47969H32.4594V11.1919H30.2122L30.1975 4.47969ZM25.7325 4.47969H27.965V11.1919H25.7325V4.47969ZM21.2528 4.47969H23.5V11.1919H21.2675L21.2528 4.47969ZM16.7731 4.47969H19.0056V11.1919H16.7731V4.47969Z" fill="#4CF190"/>
<path d="M12.3008 2.23242H10.0683V4.47961H12.3008V2.23242Z" fill="#4CF190"/>
<path d="M10.0683 4.47949H7.83578V6.71199H10.0683V4.47949Z" fill="#4CF190"/>
<path d="M7.83578 6.7124H5.58859V8.95959H7.83578V6.7124Z" fill="#4CF190"/>
<path d="M5.58859 26.8635H7.83578V17.9042H5.58859V8.95947H3.35609V44.7676H5.58859V26.8635Z" fill="#4CF190"/>
</svg>
