<svg width="132" height="132" viewBox="0 0 132 132" fill="none" xmlns="http://www.w3.org/2000/svg">
<path d="M128.844 22.0275H122.574V53.4188H128.844V22.0275Z" fill="#4CF190"/>
<path d="M109.993 22.0275H122.574V15.7163H109.993V9.44626H103.723V72.3113H109.993V59.73H122.574V53.4188H109.993V22.0275Z" fill="#4CF190"/>
<path d="M103.723 72.3113H97.4119V78.5813H103.723L103.723 72.3113Z" fill="#4CF190"/>
<path d="M97.4119 78.5813H91.1419V84.8513H97.4119V78.5813Z" fill="#4CF190"/>
<path d="M40.8581 122.595V116.284H34.5881V122.595H28.2769V128.865H103.723V122.595H97.4119V116.284H91.1419V122.595H40.8581Z" fill="#4CF190"/>
<path d="M91.1419 110.014H78.5606V116.284H91.1419L91.1419 110.014Z" fill="#4CF190"/>
<path d="M91.1419 84.8513L78.5606 84.8513V91.1625H91.1419V84.8513Z" fill="#4CF190"/>
<path d="M72.2906 34.5675V22.0275H59.7094V34.5675H40.8581V40.8788H47.1281V47.1488H53.4394V53.4188H47.1281V66H59.7094V59.73H72.2906V66H84.8719V53.4188H78.5606V47.1488H84.8719V40.8788H91.1419V34.5675H72.2906Z" fill="#4CF190"/>
<path d="M78.5606 91.1625L72.2906 91.1625V110.014L78.5606 110.014V91.1625Z" fill="#4CF190"/>
<path d="M59.7094 91.1625H53.4394V110.014H59.7094V91.1625Z" fill="#4CF190"/>
<path d="M53.4394 110.014L40.8581 110.014L40.8581 116.284H53.4394L53.4394 110.014Z" fill="#4CF190"/>
<path d="M53.4394 84.8513H40.8581V91.1625L53.4394 91.1625L53.4394 84.8513Z" fill="#4CF190"/>
<path d="M40.8581 78.5813H34.5881V84.8513L40.8581 84.8513L40.8581 78.5813Z" fill="#4CF190"/>
<path d="M103.723 3.13501H28.2769V9.44626H103.723L103.723 3.13501Z" fill="#4CF190"/>
<path d="M34.5881 72.3113H28.2769V78.5813H34.5881V72.3113Z" fill="#4CF190"/>
<path d="M28.2769 9.44626H22.0069V15.7163H9.42564V22.0275H22.0069V53.4188H9.42564V59.73H22.0069V72.3113H28.2769V9.44626Z" fill="#4CF190"/>
<path d="M9.42564 22.0275H3.15564V53.4188H9.42564V22.0275Z" fill="#4CF190"/>
</svg>
