<svg width="421" height="109" viewBox="0 0 421 109" fill="none" xmlns="http://www.w3.org/2000/svg">
<path d="M54.0981 8.23206H366.323C391.654 8.23206 412.189 28.7673 412.189 54.0983C412.189 79.4292 391.654 99.9635 366.323 99.9635H54.0981C28.7672 99.9635 8.23203 79.4292 8.23193 54.0983C8.23193 28.7673 28.7672 8.23206 54.0981 8.23206Z" fill="white"/>
<path d="M54.0981 8.23206H366.323C391.654 8.23206 412.189 28.7673 412.189 54.0983C412.189 79.4292 391.654 99.9635 366.323 99.9635H54.0981C28.7672 99.9635 8.23203 79.4292 8.23193 54.0983C8.23193 28.7673 28.7672 8.23206 54.0981 8.23206Z" stroke="#747775" stroke-width="2.35209"/>
<path fill-rule="evenodd" clip-rule="evenodd" d="M76.772 54.5793C76.772 53.0782 76.6373 51.6349 76.3871 50.2493H56.45V58.4378H67.8426C67.3519 61.0839 65.8605 63.3258 63.6185 64.8269V70.1383H70.4599C74.4627 66.453 76.772 61.0261 76.772 54.5793Z" fill="#4285F4"/>
<path fill-rule="evenodd" clip-rule="evenodd" d="M56.4502 75.267C62.1658 75.267 66.9576 73.3714 70.4601 70.1384L63.6187 64.8269C61.7231 66.097 59.2984 66.8476 56.4502 66.8476C50.9367 66.8476 46.2699 63.1238 44.6053 58.1202H37.533V63.6049C41.0162 70.5232 48.1751 75.267 56.4502 75.267Z" fill="#34A853"/>
<path fill-rule="evenodd" clip-rule="evenodd" d="M44.6052 58.1202C44.1818 56.8501 43.9412 55.4934 43.9412 54.0982C43.9412 52.7029 44.1818 51.3462 44.6052 50.0761V44.5914H37.5328C36.0991 47.4492 35.2812 50.6823 35.2812 54.0982C35.2812 57.514 36.0991 60.7471 37.5328 63.6049L44.6052 58.1202Z" fill="#FBBC05"/>
<path fill-rule="evenodd" clip-rule="evenodd" d="M56.4502 41.3487C59.5582 41.3487 62.3486 42.4168 64.5424 44.5144L70.6141 38.4428C66.948 35.027 62.1561 32.9293 56.4502 32.9293C48.1751 32.9293 41.0162 37.6731 37.533 44.5914L44.6053 50.0761C46.2699 45.0725 50.9367 41.3487 56.4502 41.3487Z" fill="#EA4335"/>
<path d="M115.836 59.5686C115.836 59.0863 115.761 58.6575 115.611 58.2823C115.471 57.9071 115.22 57.5641 114.855 57.2533C114.491 56.9424 113.976 56.6423 113.312 56.3529C112.658 56.0527 111.822 55.7472 110.803 55.4364C109.688 55.0934 108.659 54.7128 107.716 54.2948C106.784 53.866 105.969 53.3729 105.272 52.8155C104.575 52.2474 104.034 51.5989 103.648 50.87C103.262 50.1304 103.069 49.2782 103.069 48.3135C103.069 47.3595 103.268 46.4912 103.664 45.7087C104.072 44.9262 104.645 44.2509 105.385 43.6828C106.135 43.104 107.019 42.6591 108.038 42.3483C109.056 42.0267 110.182 41.8659 111.414 41.8659C113.151 41.8659 114.646 42.1875 115.9 42.8306C117.165 43.4738 118.135 44.3367 118.81 45.4193C119.496 46.502 119.839 47.6971 119.839 49.0049H115.836C115.836 48.2331 115.67 47.5524 115.337 46.9629C115.016 46.3626 114.523 45.891 113.858 45.5479C113.204 45.2049 112.374 45.0334 111.366 45.0334C110.412 45.0334 109.619 45.1781 108.986 45.4676C108.354 45.757 107.882 46.1482 107.571 46.6413C107.261 47.1344 107.105 47.6918 107.105 48.3135C107.105 48.753 107.207 49.1549 107.411 49.5194C107.614 49.8731 107.925 50.2054 108.343 50.5163C108.761 50.8164 109.286 51.1005 109.919 51.3685C110.551 51.6364 111.296 51.8937 112.154 52.1402C113.451 52.5261 114.582 52.9549 115.546 53.4265C116.511 53.8875 117.315 54.4127 117.958 55.0022C118.601 55.5918 119.084 56.2618 119.405 57.0121C119.727 57.7517 119.888 58.5932 119.888 59.5365C119.888 60.5226 119.689 61.4123 119.293 62.2055C118.896 62.988 118.328 63.658 117.588 64.2154C116.86 64.762 115.981 65.1855 114.952 65.4856C113.933 65.775 112.797 65.9197 111.543 65.9197C110.417 65.9197 109.308 65.7697 108.215 65.4695C107.132 65.1694 106.146 64.7138 105.256 64.1028C104.366 63.4811 103.659 62.7093 103.134 61.7875C102.608 60.8549 102.346 59.7669 102.346 58.5235H106.382C106.382 59.2846 106.51 59.9331 106.767 60.469C107.035 61.005 107.405 61.4445 107.877 61.7875C108.349 62.1198 108.895 62.3663 109.517 62.5271C110.149 62.6879 110.825 62.7683 111.543 62.7683C112.486 62.7683 113.274 62.6343 113.906 62.3663C114.55 62.0983 115.032 61.7232 115.354 61.2408C115.675 60.7584 115.836 60.201 115.836 59.5686ZM127.22 48.2009V65.5981H123.329V48.2009H127.22ZM123.071 43.6346C123.071 43.045 123.264 42.5573 123.65 42.1714C124.047 41.7748 124.593 41.5765 125.29 41.5765C125.976 41.5765 126.518 41.7748 126.914 42.1714C127.311 42.5573 127.509 43.045 127.509 43.6346C127.509 44.2134 127.311 44.6958 126.914 45.0817C126.518 45.4676 125.976 45.6605 125.29 45.6605C124.593 45.6605 124.047 45.4676 123.65 45.0817C123.264 44.6958 123.071 44.2134 123.071 43.6346ZM142.607 48.2009H146.128V65.1158C146.128 66.6808 145.796 68.01 145.131 69.1033C144.467 70.1967 143.54 71.0274 142.35 71.5955C141.16 72.1744 139.782 72.4638 138.217 72.4638C137.553 72.4638 136.813 72.3673 135.999 72.1744C135.195 71.9814 134.412 71.6706 133.651 71.2418C132.901 70.8237 132.274 70.2717 131.77 69.5857L133.587 67.3025C134.209 68.0421 134.895 68.5834 135.645 68.9264C136.395 69.2695 137.183 69.441 138.008 69.441C138.898 69.441 139.654 69.2748 140.276 68.9425C140.908 68.6209 141.396 68.1439 141.739 67.5115C142.082 66.8791 142.253 66.1073 142.253 65.1962V52.1402L142.607 48.2009ZM130.789 57.0925V56.7548C130.789 55.4364 130.95 54.2358 131.271 53.1532C131.593 52.0598 132.054 51.1219 132.654 50.3394C133.255 49.5462 133.983 48.9406 134.841 48.5225C135.698 48.0937 136.669 47.8794 137.751 47.8794C138.877 47.8794 139.836 48.083 140.629 48.4904C141.433 48.8977 142.103 49.4819 142.639 50.2429C143.175 50.9933 143.593 51.8937 143.893 52.9442C144.204 53.9839 144.435 55.1416 144.585 56.4172V57.4945C144.445 58.7379 144.209 59.8741 143.877 60.9032C143.545 61.9322 143.105 62.8219 142.559 63.5722C142.012 64.3226 141.337 64.9014 140.533 65.3087C139.74 65.7161 138.802 65.9197 137.719 65.9197C136.658 65.9197 135.698 65.7 134.841 65.2605C133.994 64.821 133.265 64.2047 132.654 63.4114C132.054 62.6182 131.593 61.6856 131.271 60.6137C130.95 59.5311 130.789 58.3573 130.789 57.0925ZM134.664 56.7548V57.0925C134.664 57.8857 134.739 58.6253 134.889 59.3114C135.05 59.9974 135.291 60.603 135.613 61.1283C135.945 61.6428 136.363 62.0501 136.867 62.3502C137.381 62.6397 137.987 62.7844 138.684 62.7844C139.595 62.7844 140.34 62.5914 140.919 62.2055C141.508 61.8196 141.958 61.2998 142.269 60.6459C142.591 59.9813 142.816 59.2417 142.945 58.427V55.5168C142.88 54.8843 142.746 54.2948 142.543 53.7481C142.35 53.2014 142.087 52.7244 141.755 52.3171C141.423 51.8991 141.004 51.5775 140.501 51.3524C139.997 51.1166 139.402 50.9986 138.716 50.9986C138.019 50.9986 137.414 51.1487 136.899 51.4488C136.385 51.749 135.961 52.1617 135.629 52.6869C135.307 53.2121 135.066 53.8231 134.905 54.5199C134.744 55.2166 134.664 55.9616 134.664 56.7548ZM153.991 51.9151V65.5981H150.116V48.2009H153.766L153.991 51.9151ZM153.299 56.2564L152.045 56.2403C152.056 55.0076 152.227 53.8767 152.56 52.8477C152.903 51.8187 153.374 50.9343 153.975 50.1947C154.586 49.4551 155.315 48.887 156.161 48.4904C157.008 48.083 157.951 47.8794 158.991 47.8794C159.827 47.8794 160.583 47.9973 161.258 48.2331C161.944 48.4582 162.529 48.828 163.011 49.3425C163.504 49.8571 163.879 50.527 164.136 51.3524C164.394 52.167 164.522 53.1693 164.522 54.3591V65.5981H160.631V54.343C160.631 53.5069 160.508 52.8477 160.261 52.3653C160.026 51.8723 159.677 51.5239 159.216 51.3202C158.766 51.1058 158.203 50.9986 157.528 50.9986C156.863 50.9986 156.269 51.138 155.743 51.4167C155.218 51.6954 154.773 52.0759 154.409 52.5583C154.055 53.0406 153.782 53.598 153.589 54.2305C153.396 54.8629 153.299 55.5382 153.299 56.2564ZM180.826 48.2009V65.5981H176.935V48.2009H180.826ZM176.678 43.6346C176.678 43.045 176.871 42.5573 177.257 42.1714C177.653 41.7748 178.2 41.5765 178.897 41.5765C179.583 41.5765 180.124 41.7748 180.521 42.1714C180.917 42.5573 181.116 43.045 181.116 43.6346C181.116 44.2134 180.917 44.6958 180.521 45.0817C180.124 45.4676 179.583 45.6605 178.897 45.6605C178.2 45.6605 177.653 45.4676 177.257 45.0817C176.871 44.6958 176.678 44.2134 176.678 43.6346ZM188.914 51.9151V65.5981H185.039V48.2009H188.689L188.914 51.9151ZM188.222 56.2564L186.968 56.2403C186.979 55.0076 187.15 53.8767 187.483 52.8477C187.826 51.8187 188.297 50.9343 188.898 50.1947C189.509 49.4551 190.238 48.887 191.084 48.4904C191.931 48.083 192.875 47.8794 193.914 47.8794C194.75 47.8794 195.506 47.9973 196.181 48.2331C196.867 48.4582 197.452 48.828 197.934 49.3425C198.427 49.8571 198.802 50.527 199.059 51.3524C199.317 52.167 199.445 53.1693 199.445 54.3591V65.5981H195.554V54.343C195.554 53.5069 195.431 52.8477 195.184 52.3653C194.949 51.8723 194.6 51.5239 194.139 51.3202C193.689 51.1058 193.126 50.9986 192.451 50.9986C191.787 50.9986 191.192 51.138 190.666 51.4167C190.141 51.6954 189.696 52.0759 189.332 52.5583C188.978 53.0406 188.705 53.598 188.512 54.2305C188.319 54.8629 188.222 55.5382 188.222 56.2564ZM216.328 61.7392L220.348 48.2009H222.824L222.149 52.2528L218.097 65.5981H215.878L216.328 61.7392ZM213.964 48.2009L217.1 61.8036L217.357 65.5981H214.881L210.17 48.2009H213.964ZM226.586 61.6428L229.625 48.2009H233.404L228.709 65.5981H226.233L226.586 61.6428ZM223.242 48.2009L227.213 61.5785L227.712 65.5981H225.493L221.393 52.2367L220.718 48.2009H223.242ZM240.189 48.2009V65.5981H236.298V48.2009H240.189ZM236.041 43.6346C236.041 43.045 236.234 42.5573 236.619 42.1714C237.016 41.7748 237.563 41.5765 238.259 41.5765C238.945 41.5765 239.487 41.7748 239.883 42.1714C240.28 42.5573 240.478 43.045 240.478 43.6346C240.478 44.2134 240.28 44.6958 239.883 45.0817C239.487 45.4676 238.945 45.6605 238.259 45.6605C237.563 45.6605 237.016 45.4676 236.619 45.0817C236.234 44.6958 236.041 44.2134 236.041 43.6346ZM252.409 48.2009V51.0308H242.601V48.2009H252.409ZM245.431 43.9401H249.306V60.7906C249.306 61.3266 249.381 61.7392 249.531 62.0287C249.691 62.3074 249.911 62.4949 250.19 62.5914C250.469 62.6879 250.796 62.7361 251.171 62.7361C251.439 62.7361 251.696 62.72 251.942 62.6879C252.189 62.6557 252.387 62.6236 252.537 62.5914L252.553 65.5499C252.232 65.6464 251.857 65.7321 251.428 65.8072C251.01 65.8822 250.528 65.9197 249.981 65.9197C249.091 65.9197 248.303 65.7643 247.617 65.4534C246.931 65.1319 246.395 64.612 246.009 63.8938C245.624 63.1756 245.431 62.2216 245.431 61.0318V43.9401ZM259.226 40.9012V65.5981H255.367V40.9012H259.226ZM258.551 56.2564L257.297 56.2403C257.307 55.0398 257.474 53.9303 257.795 52.912C258.127 51.8937 258.588 51.0094 259.178 50.259C259.778 49.498 260.496 48.9138 261.332 48.5064C262.169 48.0884 263.096 47.8794 264.114 47.8794C264.972 47.8794 265.743 47.9973 266.429 48.2331C267.126 48.4689 267.726 48.8494 268.23 49.3747C268.734 49.8892 269.115 50.5645 269.372 51.4006C269.64 52.226 269.774 53.2336 269.774 54.4234V65.5981H265.883V54.3913C265.883 53.5552 265.759 52.8906 265.513 52.3975C265.277 51.9044 264.929 51.5507 264.468 51.3363C264.007 51.1112 263.444 50.9986 262.78 50.9986C262.083 50.9986 261.466 51.138 260.93 51.4167C260.405 51.6954 259.966 52.0759 259.612 52.5583C259.258 53.0406 258.99 53.598 258.808 54.2305C258.637 54.8629 258.551 55.5382 258.551 56.2564ZM300.259 53.6356V62.5753C299.927 63.0148 299.407 63.4972 298.699 64.0224C298.003 64.5369 297.076 64.9818 295.918 65.357C294.76 65.7321 293.318 65.9197 291.593 65.9197C290.124 65.9197 288.779 65.6732 287.557 65.1801C286.335 64.6763 285.279 63.942 284.389 62.9773C283.51 62.0126 282.83 60.8388 282.347 59.4561C281.865 58.0626 281.624 56.4761 281.624 54.6968V53.0728C281.624 51.3041 281.844 49.7284 282.283 48.3456C282.733 46.9522 283.376 45.773 284.213 44.8083C285.049 43.8436 286.056 43.1147 287.235 42.6216C288.425 42.1178 289.77 41.8659 291.271 41.8659C293.19 41.8659 294.776 42.1875 296.03 42.8306C297.295 43.4631 298.271 44.342 298.957 45.4676C299.643 46.5931 300.077 47.8794 300.259 49.3265H296.304C296.175 48.5118 295.923 47.7829 295.548 47.1397C295.184 46.4966 294.658 45.9928 293.972 45.6283C293.297 45.2532 292.418 45.0656 291.335 45.0656C290.403 45.0656 289.583 45.2424 288.875 45.5962C288.168 45.9499 287.578 46.4698 287.107 47.1558C286.646 47.8418 286.297 48.6779 286.062 49.6641C285.826 50.6503 285.708 51.7758 285.708 53.0406V54.6968C285.708 55.9831 285.842 57.1246 286.11 58.1215C286.389 59.1184 286.785 59.9599 287.3 60.6459C287.825 61.3319 288.463 61.8518 289.213 62.2055C289.963 62.5485 290.81 62.72 291.753 62.72C292.675 62.72 293.431 62.645 294.021 62.4949C294.61 62.3342 295.076 62.1466 295.419 61.9322C295.773 61.7071 296.046 61.4927 296.239 61.289V56.6423H291.368V53.6356H300.259ZM303.603 57.0925V56.7227C303.603 55.4685 303.786 54.3055 304.15 53.2336C304.515 52.151 305.04 51.213 305.726 50.4198C306.423 49.6159 307.269 48.9942 308.266 48.5547C309.274 48.1045 310.41 47.8794 311.675 47.8794C312.951 47.8794 314.087 48.1045 315.084 48.5547C316.091 48.9942 316.943 49.6159 317.64 50.4198C318.337 51.213 318.868 52.151 319.232 53.2336C319.596 54.3055 319.779 55.4685 319.779 56.7227V57.0925C319.779 58.3466 319.596 59.5097 319.232 60.5816C318.868 61.6535 318.337 62.5914 317.64 63.3954C316.943 64.1886 316.097 64.8103 315.1 65.2605C314.103 65.7 312.972 65.9197 311.707 65.9197C310.432 65.9197 309.29 65.7 308.282 65.2605C307.286 64.8103 306.439 64.1886 305.742 63.3954C305.045 62.5914 304.515 61.6535 304.15 60.5816C303.786 59.5097 303.603 58.3466 303.603 57.0925ZM307.478 56.7227V57.0925C307.478 57.875 307.559 58.6146 307.72 59.3114C307.88 60.0081 308.132 60.6191 308.475 61.1443C308.818 61.6696 309.258 62.0823 309.794 62.3824C310.33 62.6825 310.968 62.8326 311.707 62.8326C312.425 62.8326 313.047 62.6825 313.572 62.3824C314.108 62.0823 314.548 61.6696 314.891 61.1443C315.234 60.6191 315.486 60.0081 315.646 59.3114C315.818 58.6146 315.904 57.875 315.904 57.0925V56.7227C315.904 55.9509 315.818 55.222 315.646 54.536C315.486 53.8392 315.228 53.2229 314.875 52.6869C314.532 52.151 314.092 51.7329 313.556 51.4328C313.031 51.1219 312.404 50.9665 311.675 50.9665C310.946 50.9665 310.314 51.1219 309.778 51.4328C309.252 51.7329 308.818 52.151 308.475 52.6869C308.132 53.2229 307.88 53.8392 307.72 54.536C307.559 55.222 307.478 55.9509 307.478 56.7227ZM322.287 57.0925V56.7227C322.287 55.4685 322.469 54.3055 322.834 53.2336C323.198 52.151 323.723 51.213 324.409 50.4198C325.106 49.6159 325.953 48.9942 326.95 48.5547C327.957 48.1045 329.094 47.8794 330.359 47.8794C331.634 47.8794 332.77 48.1045 333.767 48.5547C334.775 48.9942 335.627 49.6159 336.324 50.4198C337.02 51.213 337.551 52.151 337.916 53.2336C338.28 54.3055 338.462 55.4685 338.462 56.7227V57.0925C338.462 58.3466 338.28 59.5097 337.916 60.5816C337.551 61.6535 337.02 62.5914 336.324 63.3954C335.627 64.1886 334.78 64.8103 333.783 65.2605C332.786 65.7 331.656 65.9197 330.391 65.9197C329.115 65.9197 327.974 65.7 326.966 65.2605C325.969 64.8103 325.122 64.1886 324.425 63.3954C323.729 62.5914 323.198 61.6535 322.834 60.5816C322.469 59.5097 322.287 58.3466 322.287 57.0925ZM326.162 56.7227V57.0925C326.162 57.875 326.242 58.6146 326.403 59.3114C326.564 60.0081 326.816 60.6191 327.159 61.1443C327.502 61.6696 327.941 62.0823 328.477 62.3824C329.013 62.6825 329.651 62.8326 330.391 62.8326C331.109 62.8326 331.731 62.6825 332.256 62.3824C332.792 62.0823 333.231 61.6696 333.574 61.1443C333.917 60.6191 334.169 60.0081 334.33 59.3114C334.501 58.6146 334.587 57.875 334.587 57.0925V56.7227C334.587 55.9509 334.501 55.222 334.33 54.536C334.169 53.8392 333.912 53.2229 333.558 52.6869C333.215 52.151 332.776 51.7329 332.24 51.4328C331.715 51.1219 331.087 50.9665 330.359 50.9665C329.63 50.9665 328.997 51.1219 328.461 51.4328C327.936 51.7329 327.502 52.151 327.159 52.6869C326.816 53.2229 326.564 53.8392 326.403 54.536C326.242 55.222 326.162 55.9509 326.162 56.7227ZM352.853 48.2009H356.374V65.1158C356.374 66.6808 356.042 68.01 355.377 69.1033C354.712 70.1967 353.785 71.0274 352.595 71.5955C351.406 72.1744 350.028 72.4638 348.463 72.4638C347.799 72.4638 347.059 72.3673 346.244 72.1744C345.44 71.9814 344.658 71.6706 343.897 71.2418C343.146 70.8237 342.519 70.2717 342.016 69.5857L343.833 67.3025C344.454 68.0421 345.14 68.5834 345.891 68.9264C346.641 69.2695 347.429 69.441 348.254 69.441C349.144 69.441 349.9 69.2748 350.521 68.9425C351.154 68.6209 351.641 68.1439 351.984 67.5115C352.327 66.8791 352.499 66.1073 352.499 65.1962V52.1402L352.853 48.2009ZM341.035 57.0925V56.7548C341.035 55.4364 341.196 54.2358 341.517 53.1532C341.839 52.0598 342.3 51.1219 342.9 50.3394C343.5 49.5462 344.229 48.9406 345.087 48.5225C345.944 48.0937 346.914 47.8794 347.997 47.8794C349.122 47.8794 350.082 48.083 350.875 48.4904C351.679 48.8977 352.349 49.4819 352.885 50.2429C353.421 50.9933 353.839 51.8937 354.139 52.9442C354.45 53.9839 354.68 55.1416 354.83 56.4172V57.4945C354.691 58.7379 354.455 59.8741 354.123 60.9032C353.791 61.9322 353.351 62.8219 352.804 63.5722C352.258 64.3226 351.582 64.9014 350.779 65.3087C349.985 65.7161 349.047 65.9197 347.965 65.9197C346.904 65.9197 345.944 65.7 345.087 65.2605C344.24 64.821 343.511 64.2047 342.9 63.4114C342.3 62.6182 341.839 61.6856 341.517 60.6137C341.196 59.5311 341.035 58.3573 341.035 57.0925ZM344.91 56.7548V57.0925C344.91 57.8857 344.985 58.6253 345.135 59.3114C345.296 59.9974 345.537 60.603 345.858 61.1283C346.191 61.6428 346.609 62.0501 347.113 62.3502C347.627 62.6397 348.233 62.7844 348.929 62.7844C349.841 62.7844 350.586 62.5914 351.164 62.2055C351.754 61.8196 352.204 61.2998 352.515 60.6459C352.837 59.9813 353.062 59.2417 353.19 58.427V55.5168C353.126 54.8843 352.992 54.2948 352.788 53.7481C352.595 53.2014 352.333 52.7244 352.001 52.3171C351.668 51.8991 351.25 51.5775 350.746 51.3524C350.243 51.1166 349.648 50.9986 348.962 50.9986C348.265 50.9986 347.659 51.1487 347.145 51.4488C346.63 51.749 346.207 52.1617 345.875 52.6869C345.553 53.2121 345.312 53.8231 345.151 54.5199C344.99 55.2166 344.91 55.9616 344.91 56.7548ZM364.542 40.9012V65.5981H360.651V40.9012H364.542ZM376.456 65.9197C375.17 65.9197 374.007 65.7107 372.967 65.2926C371.938 64.8639 371.059 64.269 370.33 63.5079C369.612 62.7468 369.06 61.8518 368.674 60.8228C368.288 59.7937 368.095 58.6843 368.095 57.4945V56.8513C368.095 55.49 368.294 54.2573 368.69 53.1532C369.087 52.0491 369.639 51.1058 370.346 50.3233C371.054 49.5301 371.89 48.9245 372.855 48.5064C373.819 48.0884 374.865 47.8794 375.99 47.8794C377.233 47.8794 378.321 48.0884 379.254 48.5064C380.187 48.9245 380.958 49.514 381.569 50.2751C382.191 51.0254 382.652 51.9205 382.952 52.9602C383.263 54 383.418 55.147 383.418 56.4011V58.0572H369.977V55.2756H379.592V54.9701C379.57 54.2733 379.431 53.6195 379.174 53.0085C378.927 52.3975 378.547 51.9044 378.032 51.5292C377.517 51.1541 376.831 50.9665 375.974 50.9665C375.331 50.9665 374.757 51.1058 374.254 51.3845C373.76 51.6525 373.348 52.0438 373.015 52.5583C372.683 53.0728 372.426 53.6945 372.244 54.4234C372.072 55.1416 371.986 55.9509 371.986 56.8513V57.4945C371.986 58.2555 372.088 58.963 372.292 59.6169C372.506 60.26 372.817 60.8228 373.224 61.3051C373.632 61.7875 374.125 62.168 374.704 62.4467C375.283 62.7147 375.942 62.8487 376.681 62.8487C377.614 62.8487 378.445 62.6611 379.174 62.2859C379.903 61.9108 380.535 61.3802 381.071 60.6941L383.113 62.6718C382.738 63.2185 382.25 63.7437 381.65 64.2475C381.049 64.7406 380.315 65.1426 379.447 65.4534C378.589 65.7643 377.593 65.9197 376.456 65.9197Z" fill="#1F1F1F"/>
</svg>
