<svg width="362" height="362" viewBox="0 0 362 362" fill="none" xmlns="http://www.w3.org/2000/svg">
<g clip-path="url(#clip0_5_1831)">
<path d="M362 224.101H344.805V344.805H362V224.101Z" fill="#4CF190"/>
<path d="M344.805 344.805H17.3081V362H344.805V344.805Z" fill="#4CF190"/>
<path d="M293.107 275.799H275.799V293.107H310.302V258.604H293.107V275.799Z" fill="#4CF190"/>
<path d="M310.302 310.302H275.799V327.61H310.302V310.302Z" fill="#4CF190"/>
<path d="M275.799 241.409H258.604V258.604H275.799V241.409Z" fill="#4CF190"/>
<path d="M275.799 120.704H258.604V137.899H275.799V120.704Z" fill="#4CF190"/>
<path d="M258.604 275.799H241.296V293.107H258.604V275.799Z" fill="#4CF190"/>
<path d="M258.604 137.899H241.296V155.208H258.604V137.899Z" fill="#4CF190"/>
<path d="M258.604 103.509H241.296V120.704H258.604V103.509Z" fill="#4CF190"/>
<path d="M258.604 310.302H103.396V327.61H258.604V310.302Z" fill="#4CF190"/>
<path d="M241.296 241.409H224.101V258.604H241.296V241.409Z" fill="#4CF190"/>
<path d="M241.296 86.2012H69.0062V103.509H241.296V86.2012Z" fill="#4CF190"/>
<path d="M224.101 275.799H206.906V293.107H224.101V275.799Z" fill="#4CF190"/>
<path d="M224.101 0H206.906V34.5031H224.101V0Z" fill="#4CF190"/>
<path d="M206.906 241.409H189.598V258.604H206.906V241.409Z" fill="#4CF190"/>
<path d="M189.597 275.799H172.402V293.107H189.597V275.799Z" fill="#4CF190"/>
<path d="M172.403 241.409H155.208V258.604H172.403V241.409Z" fill="#4CF190"/>
<path d="M241.296 155.208H137.899V172.402H241.296V155.208Z" fill="#4CF190"/>
<path d="M155.208 275.799H137.899V293.107H155.208V275.799Z" fill="#4CF190"/>
<path d="M137.899 241.409H120.704V258.604H137.899V241.409Z" fill="#4CF190"/>
<path d="M120.704 275.799H103.396V293.107H120.704V275.799Z" fill="#4CF190"/>
<path d="M103.396 241.409H86.2013V258.604H103.396V241.409Z" fill="#4CF190"/>
<path d="M206.906 34.5031H69.0062V51.8112H206.906V34.5031Z" fill="#4CF190"/>
<path d="M86.2012 275.799H69.0062V293.107H86.2012V275.799Z" fill="#4CF190"/>
<path d="M86.2012 310.302H51.6981V327.61H86.2012V310.302Z" fill="#4CF190"/>
<path d="M69.0062 241.409H51.6981V258.604H69.0062V241.409Z" fill="#4CF190"/>
<path d="M69.0062 51.8112H51.6981V86.2012H69.0062V51.8112Z" fill="#4CF190"/>
<path d="M51.6982 275.799H34.5032V293.107H51.6982V275.799Z" fill="#4CF190"/>
<path d="M344.805 224.101V206.906H137.899V172.402H120.704V206.906H17.3081V224.101H344.805Z" fill="#4CF190"/>
<path d="M17.3081 224.101H0V344.805H17.3081V224.101Z" fill="#4CF190"/>
</g>
<defs>
<clipPath id="clip0_5_1831">
<rect width="362" height="362" fill="white"/>
</clipPath>
</defs>
</svg>
