<svg width="380" height="111" viewBox="0 0 380 111" fill="none" xmlns="http://www.w3.org/2000/svg">
<path d="M5.30719 15.8522H10.5797V10.5797H15.8869V5.2725H21.1594V0H100.455V21.1594H95.1478V26.4319H89.8753V21.1594H26.4319V26.4319H21.1594V79.2956H26.4319V84.5681H31.7391V89.8406H100.455V84.5681H105.728V89.8406H111V111H105.728V95.1478H37.0116V111H0V21.1594H5.30719V15.8522ZM89.8753 15.8522H95.1478V5.2725H89.8753V15.8522ZM79.2956 15.8522H84.6028V5.2725H79.2956V15.8522ZM31.7391 15.8522H74.0231V5.2725H31.7391V15.8522ZM5.30719 52.8638H10.5797V26.4319H15.8869V21.1594H21.1594V15.8522H26.4319V10.5797H21.1594V15.8522H15.8869V21.1594H10.5797V26.4319H5.30719V52.8638Z" fill="#4CF190"/>
<path d="M37.0116 52.8638H42.3187V58.1363H37.0116V52.8638Z" fill="#4CF190"/>
<path d="M37.0116 79.2956H52.8638V84.5681H37.0116V79.2956Z" fill="#4CF190"/>
<path d="M42.3188 42.2841H47.5912V47.5566H42.3188V42.2841Z" fill="#4CF190"/>
<path d="M42.3188 111V100.42H58.1709V111H52.8638V105.727H47.5912V111H42.3188Z" fill="#4CF190"/>
<path d="M42.3187 58.1363L63.4434 58.1362V63.4434H42.3188L42.3187 58.1363Z" fill="#4CF190"/>
<path d="M58.1709 42.2841H63.4434V47.5566H58.1709V42.2841Z" fill="#4CF190"/>
<path d="M63.4434 52.8638H68.7159V58.1363L63.4434 58.1362V52.8638Z" fill="#4CF190"/>
<path d="M68.7159 79.2956H74.0231V84.5681H68.7159V79.2956Z" fill="#4CF190"/>
<path d="M26.4319 73.9884V31.7044H79.2956V73.9884H26.4319ZM74.0231 37.0116H31.7391V68.7159H74.0231V37.0116Z" fill="#4CF190"/>
<path d="M79.2956 79.2956H84.6028V84.5681H79.2956V79.2956Z" fill="#4CF190"/>
<path d="M84.6028 26.4319H89.8753V73.9884H84.6028V26.4319Z" fill="#4CF190"/>
<path d="M89.8753 73.9884L95.1478 73.9884V79.2956H89.8753V73.9884Z" fill="#4CF190"/>
<path d="M95.1478 79.2956H100.455V84.5681L95.1478 84.5681V79.2956Z" fill="#4CF190"/>
<path d="M132 84V28H180V36H188V60H180V68H148V84H132ZM148 60H172V36H148V60Z" fill="#4CF190"/>
<path d="M204 84V76H196V36H204V28H244V36H252V76H244V84H204ZM212 76H236V36H212V76Z" fill="#4CF190"/>
<path d="M260 84V28H276V36H284V44H292V52H300V28H316V84H300V68H292V60H284V52H276V84H260Z" fill="#4CF190"/>
<path d="M340 84V76H332V68H324V44H332V36H340V28H380V36H348V44H340V68H348V76H364V60H356V52H380V84H340Z" fill="#4CF190"/>
</svg>
