<svg width="113" height="112" viewBox="0 0 113 112" fill="none" xmlns="http://www.w3.org/2000/svg">
<path d="M10.2767 46.6666H14.9433V79.3333H10.2767V74.6666H5.60999V51.3333H10.2767V46.6666Z" fill="white"/>
<path d="M89.61 32.6667H84.9433V28H61.61V14H52.2767V28H28.9433V32.6667H24.2767V37.3333H19.61V84H24.2767V88.6667H28.9433V93.3333H84.9433V88.6667H89.61V84H94.2767V37.3333H89.61V32.6667ZM80.2767 60.6667H66.2767V46.6667H80.2767V60.6667ZM61.61 79.3333H52.2767V74.6667H61.61V79.3333ZM33.61 74.6667H47.61V79.3333H33.61V74.6667ZM33.61 46.6667H47.61V60.6667H33.61V46.6667ZM66.2767 79.3333V74.6667H80.2767V79.3333H66.2767Z" fill="white"/>
<path d="M108.277 51.3333V74.6666H103.61V79.3333H98.9434V46.6666H103.61V51.3333H108.277Z" fill="white"/>
</svg>
