<svg width="27" height="27" viewBox="0 0 27 27" fill="none" xmlns="http://www.w3.org/2000/svg">
<path d="M19.2881 15.4238V11.5679H7.71188V15.4238H0V27.0001H27V15.4238H19.2881ZM7.71188 25.7091H1.29094V16.7147H7.71188V25.7091ZM17.9972 25.7091H9.00281V12.8588H17.9972V25.7091ZM25.7175 25.7091H19.2881V16.7147H25.7175V25.7091Z" fill="#EFD671"/>
<path d="M24.4266 17.9971H20.5707V19.288H23.1441V20.5705H20.5707V21.853H23.1441V23.1439H20.5707V24.4264H24.4266V17.9971Z" fill="#EFD671"/>
<path d="M24.4266 5.13843H21.8616V6.42936H24.4266V5.13843Z" fill="#EFD671"/>
<path d="M21.8616 0H20.5707V1.2825H21.8616V0Z" fill="#EFD671"/>
<path d="M20.5706 1.28247H19.2881V2.57341H20.5706V1.28247Z" fill="#EFD671"/>
<path d="M15.4322 19.2882H14.1413V14.1414H11.5763V15.4239H12.8588V19.2882H11.5763V20.5707H15.4322V19.2882Z" fill="#EFD671"/>
<path d="M14.1413 0H12.8588V2.57344H14.1413V0Z" fill="#EFD671"/>
<path d="M7.71191 3.85596V8.99439H9.00285V10.2853H17.9972V8.99439H19.2882V3.85596H17.9972V5.13846H16.7147V6.42939H15.4322V5.13846H14.1413V3.85596H12.8588V5.13846H11.5763V6.42939H10.2854V5.13846H9.00285V3.85596H7.71191ZM15.4322 7.71189H16.7147V8.99439H15.4322V7.71189ZM12.8588 7.71189H14.1413V8.99439H12.8588V7.71189ZM10.2854 7.71189H11.5763V8.99439H10.2854V7.71189Z" fill="#EFD671"/>
<path d="M7.71182 1.28247H6.42932V2.57341H7.71182V1.28247Z" fill="#EFD671"/>
<path d="M6.42935 0H5.14685V1.2825H6.42935V0Z" fill="#EFD671"/>
<path d="M6.42942 23.1439H3.85599V21.853H6.42942V17.9971H2.57349V19.288H5.14692V20.5705H2.57349V24.4264H6.42942V23.1439Z" fill="#EFD671"/>
<path d="M5.14692 5.13843H2.57349V6.42936H5.14692V5.13843Z" fill="#EFD671"/>
</svg>
